<svg width="16" height="16" viewBox="0 0 16 16" fill="none" xmlns="http://www.w3.org/2000/svg">
<path d="M12.3728 10.9167H6.82652C6.0267 10.9167 5.31754 10.3919 5.10109 9.64017L3.22642 3.28789C3.15982 3.05787 2.93844 2.90001 2.6856 2.90001H1.2167C0.875687 2.90001 0.600037 2.62374 0.600037 2.28334C0.600037 1.94294 0.875687 1.66667 1.2167 1.66667H2.6856C3.48542 1.66667 4.19397 2.19146 4.41042 2.94317L4.7613 4.13334H14.1932C14.578 4.13334 14.9431 4.31649 15.1694 4.62359C15.3939 4.92822 15.4586 5.30932 15.347 5.66946L14.0748 9.70739C13.8257 10.4363 13.143 10.9167 12.3728 10.9167Z" fill="#666666"/>
<path d="M7.38336 14C6.70317 14 6.15002 13.4468 6.15002 12.7667C6.15002 12.0865 6.70317 11.5333 7.38336 11.5333C8.06354 11.5333 8.61669 12.0865 8.61669 12.7667C8.61669 13.4468 8.06354 14 7.38336 14Z" fill="#666666"/>
<path d="M11.7001 14C11.0199 14 10.4667 13.4468 10.4667 12.7667C10.4667 12.0865 11.0199 11.5333 11.7001 11.5333C12.3803 11.5333 12.9334 12.0865 12.9334 12.7667C12.9334 13.4468 12.3803 14 11.7001 14Z" fill="#666666"/>
</svg>
