<svg width="16" height="16" viewBox="0 0 16 16" fill="none" xmlns="http://www.w3.org/2000/svg">
<path d="M7.125 15C7.60825 15 8 14.6082 8 14.125C8 13.6418 7.60825 13.25 7.125 13.25C6.64175 13.25 6.25 13.6418 6.25 14.125C6.25 14.6082 6.64175 15 7.125 15Z" fill="#666666"/>
<path d="M11.7917 15C12.2749 15 12.6667 14.6082 12.6667 14.125C12.6667 13.6418 12.2749 13.25 11.7917 13.25C11.3084 13.25 10.9167 13.6418 10.9167 14.125C10.9167 14.6082 11.3084 15 11.7917 15Z" fill="#666666"/>
<path d="M15 4.79167C15 6.88233 13.299 8.58333 11.2084 8.58333C9.11769 8.58333 7.41669 6.88233 7.41669 4.79167C7.41669 2.701 9.11769 1 11.2084 1C13.299 1 15 2.701 15 4.79167ZM13.0505 3.0405C12.8079 2.82817 12.4398 2.85383 12.2274 3.09533L10.5964 4.95967L9.87077 4.234C9.64269 4.00592 9.27402 4.00592 9.04594 4.234C8.81785 4.46208 8.81785 4.83075 9.04594 5.05883L10.2126 6.2255C10.4512 6.46408 10.842 6.45125 11.0637 6.1975L13.1054 3.86417C13.3177 3.62092 13.2932 3.25225 13.0505 3.0405Z" fill="#666666"/>
<path d="M6.25001 4.79166C6.25001 4.69308 6.25876 4.59683 6.26459 4.5H4.70942L4.48776 3.4465C4.33259 2.7115 3.67576 2.176 2.92501 2.17308L1.43926 2.16666C1.43867 2.16666 1.43809 2.16666 1.43751 2.16666C1.19659 2.16666 1.00117 2.36091 1.00001 2.60241C0.998839 2.84391 1.19426 3.0405 1.43576 3.04166L2.92092 3.04808C3.26217 3.04925 3.56084 3.29308 3.63142 3.62675L3.92601 5.02733L4.98184 10.0417H4.64584C3.92192 10.0417 3.33334 10.6302 3.33334 11.3542C3.33334 12.0781 3.92192 12.6667 4.64584 12.6667H13.3958C13.6373 12.6667 13.8333 12.4707 13.8333 12.2292C13.8333 11.9877 13.6373 11.7917 13.3958 11.7917H4.64584C4.40434 11.7917 4.20834 11.5957 4.20834 11.3542C4.20834 11.1127 4.40434 10.9167 4.64584 10.9167H5.52026H13.3958C13.6023 10.9167 13.7814 10.7714 13.824 10.569L14.2119 8.72741C13.3772 9.36616 12.3377 9.75 11.2083 9.75C8.47426 9.75 6.25001 7.52575 6.25001 4.79166Z" fill="#666666"/>
</svg>
