<svg width="16" height="16" viewBox="0 0 16 16" fill="none" xmlns="http://www.w3.org/2000/svg">
<path d="M6.6875 15C7.41237 15 8 14.4124 8 13.6875C8 12.9626 7.41237 12.375 6.6875 12.375C5.96263 12.375 5.375 12.9626 5.375 13.6875C5.375 14.4124 5.96263 15 6.6875 15Z" fill="#666666"/>
<path d="M11.0625 15C11.7874 15 12.375 14.4124 12.375 13.6875C12.375 12.9626 11.7874 12.375 11.0625 12.375C10.3376 12.375 9.75 12.9626 9.75 13.6875C9.75 14.4124 10.3376 15 11.0625 15Z" fill="#666666"/>
<path d="M8.04462 4.5H3.92425L3.76325 3.77463C3.6285 3.17088 3.1035 2.75 2.48487 2.75H1.4375C1.196 2.75 1 2.946 1 3.1875C1 3.429 1.196 3.625 1.4375 3.625H2.48487C2.68963 3.625 2.86462 3.765 2.90838 3.96537L4.35737 10.4736C4.493 11.0774 5.01975 11.5 5.63925 11.5H12.1528C12.7355 11.5 13.2544 11.1089 13.4145 10.548L14.3963 7.11275C13.7199 7.65875 12.872 8 11.9375 8C9.91625 8 8.26512 6.4635 8.04462 4.5Z" fill="#666666"/>
<circle cx="11.8783" cy="4.12162" r="3.12162" fill="#666666"/>
<path d="M10.7931 4.88016C11.0762 4.65832 11.3083 4.46713 11.4893 4.30659C11.6702 4.14605 11.822 3.98113 11.9446 3.81184C12.0672 3.63962 12.1285 3.47616 12.1285 3.32146C12.1285 3.22805 12.1066 3.15508 12.0628 3.10254C12.022 3.05 11.9607 3.02373 11.8789 3.02373C11.7943 3.02373 11.7286 3.06021 11.6819 3.13319C11.6352 3.20324 11.6133 3.30686 11.6162 3.44405H10.7844C10.7931 3.18427 10.85 2.96973 10.9551 2.80043C11.0602 2.62821 11.1974 2.5027 11.3667 2.42389C11.536 2.34216 11.7242 2.3013 11.9315 2.3013C12.2905 2.3013 12.5576 2.39032 12.7327 2.56838C12.9079 2.74643 12.9954 2.97703 12.9954 3.26016C12.9954 3.56373 12.8933 3.84832 12.6889 4.11394C12.4875 4.37957 12.2351 4.61746 11.9315 4.82762H13.0261V5.52378H10.7931V4.88016Z" fill="white"/>
</svg>
