<svg width="16" height="16" viewBox="0 0 16 16" fill="none" xmlns="http://www.w3.org/2000/svg">
<g clip-path="url(#clip0_3285_150)">
<path d="M6.5 5V10H4V5H6.5ZM15 3.5V11.5C15 11.8978 14.842 12.2794 14.5607 12.5607C14.2794 12.842 13.8978 13 13.5 13H2.5C2.10218 13 1.72064 12.842 1.43934 12.5607C1.15804 12.2794 1 11.8978 1 11.5V3.5C1 3.10218 1.15804 2.72064 1.43934 2.43934C1.72064 2.15804 2.10218 2 2.5 2H13.5C13.8978 2 14.2794 2.15804 14.5607 2.43934C14.842 2.72064 15 3.10218 15 3.5ZM7.5 5C7.5 4.73478 7.39464 4.48043 7.20711 4.29289C7.01957 4.10536 6.76522 4 6.5 4H4C3.73478 4 3.48043 4.10536 3.29289 4.29289C3.10536 4.48043 3 4.73478 3 5V10C3 10.2652 3.10536 10.5196 3.29289 10.7071C3.48043 10.8946 3.73478 11 4 11H6.5C6.76522 11 7.01957 10.8946 7.20711 10.7071C7.39464 10.5196 7.5 10.2652 7.5 10V5ZM11.5 9.5C11.5 9.36739 11.4473 9.24021 11.3536 9.14645C11.2598 9.05268 11.1326 9 11 9H9C8.86739 9 8.74021 9.05268 8.64645 9.14645C8.55268 9.24021 8.5 9.36739 8.5 9.5C8.5 9.63261 8.55268 9.75979 8.64645 9.85355C8.74021 9.94732 8.86739 10 9 10H11C11.1326 10 11.2598 9.94732 11.3536 9.85355C11.4473 9.75979 11.5 9.63261 11.5 9.5ZM13 7.5C13 7.36739 12.9473 7.24021 12.8536 7.14645C12.7598 7.05268 12.6326 7 12.5 7H9C8.86739 7 8.74021 7.05268 8.64645 7.14645C8.55268 7.24021 8.5 7.36739 8.5 7.5C8.5 7.63261 8.55268 7.75979 8.64645 7.85355C8.74021 7.94732 8.86739 8 9 8H12.5C12.6326 8 12.7598 7.94732 12.8536 7.85355C12.9473 7.75979 13 7.63261 13 7.5ZM13 5.5C13 5.36739 12.9473 5.24021 12.8536 5.14645C12.7598 5.05268 12.6326 5 12.5 5H9C8.86739 5 8.74021 5.05268 8.64645 5.14645C8.55268 5.24021 8.5 5.36739 8.5 5.5C8.5 5.63261 8.55268 5.75979 8.64645 5.85355C8.74021 5.94732 8.86739 6 9 6H12.5C12.6326 6 12.7598 5.94732 12.8536 5.85355C12.9473 5.75979 13 5.63261 13 5.5Z" fill="#666666"/>
</g>
<defs>
<clipPath id="clip0_3285_150">
<rect width="16" height="16" fill="white"/>
</clipPath>
</defs>
</svg>
