<svg width="16" height="16" viewBox="0 0 16 16" fill="none" xmlns="http://www.w3.org/2000/svg">
<path fill-rule="evenodd" clip-rule="evenodd" d="M1.57803 11.088H2.75513C3.09072 11.088 3.36441 11.3617 3.36441 11.6972V12.8743C3.36441 13.2099 3.09072 13.4837 2.75513 13.4837H1.57803C1.24244 13.4837 0.96875 13.21 0.96875 12.8743V11.6972C0.96875 11.3617 1.24244 11.088 1.57803 11.088ZM5.86384 2.51637H14.422C14.7575 2.51637 15.0312 2.79009 15.0312 3.12565V4.30275C15.0312 4.63831 14.7575 4.91203 14.422 4.91203C8.13912 4.91203 12.1467 4.91203 5.86384 4.91203C5.52828 4.91203 5.25456 4.63834 5.25456 4.30275V3.12565C5.25456 2.79006 5.52828 2.51637 5.86384 2.51637ZM1.57803 2.51637H2.75513C3.09072 2.51637 3.36441 2.79009 3.36441 3.12565V4.30275C3.36441 4.63834 3.09072 4.91203 2.75513 4.91203H1.57803C1.24244 4.91203 0.96875 4.63834 0.96875 4.30275V3.12565C0.96875 2.79006 1.24244 2.51637 1.57803 2.51637ZM5.86384 6.80215H14.422C14.7575 6.80215 15.0312 7.07587 15.0312 7.41144V8.58853C15.0312 8.92409 14.7575 9.19781 14.422 9.19781C8.13912 9.19781 12.1467 9.19781 5.86384 9.19781C5.52828 9.19781 5.25456 8.92412 5.25456 8.58853V7.41144C5.25456 7.07584 5.52828 6.80215 5.86384 6.80215ZM1.57803 6.80215H2.75513C3.09072 6.80215 3.36441 7.07587 3.36441 7.41144V8.58853C3.36441 8.92412 3.09072 9.19781 2.75513 9.19781H1.57803C1.24244 9.19781 0.96875 8.92412 0.96875 8.58853V7.41144C0.96875 7.07584 1.24244 6.80215 1.57803 6.80215ZM5.86384 11.088H14.422C14.7575 11.088 15.0312 11.3617 15.0312 11.6972V12.8743C15.0312 13.2099 14.7575 13.4836 14.422 13.4836C8.13912 13.4836 12.1467 13.4836 5.86384 13.4836C5.52828 13.4836 5.25456 13.2099 5.25456 12.8743V11.6972C5.25456 11.3617 5.52828 11.088 5.86384 11.088Z" fill="#666666"/>
</svg>
