<svg width="16" height="16" viewBox="0 0 16 16" fill="none" xmlns="http://www.w3.org/2000/svg">
<rect x="1" y="1" width="14" height="14" rx="3" fill="#666666"/>
<path d="M12 2.84961C12.3662 2.84961 12.6504 3.13382 12.6504 3.5V4.83301C12.6504 5.19918 12.3662 5.4834 12 5.4834C11.6338 5.4834 11.3496 5.19918 11.3496 4.83301V4.15039H8.65039V11.8496H9.5C9.86618 11.8496 10.1504 12.1338 10.1504 12.5C10.1504 12.8662 9.86618 13.1504 9.5 13.1504H6.5C6.13382 13.1504 5.84961 12.8662 5.84961 12.5C5.84961 12.1338 6.13382 11.8496 6.5 11.8496H7.34961V4.15039H4.65039V4.83301C4.65039 5.19918 4.36618 5.4834 4 5.4834C3.63382 5.4834 3.34961 5.19918 3.34961 4.83301V3.5C3.34961 3.13382 3.63382 2.84961 4 2.84961H12Z" fill="white" stroke="white" stroke-width="0.3"/>
</svg>
