<svg width="16" height="16" viewBox="0 0 16 16" fill="none" xmlns="http://www.w3.org/2000/svg">
<path d="M7.75 1C6.41498 1 5.10994 1.39588 3.9999 2.13758C2.88987 2.87928 2.02471 3.93349 1.51382 5.16689C1.00292 6.40029 0.869252 7.75749 1.1297 9.06686C1.39015 10.3762 2.03303 11.579 2.97703 12.523C3.92104 13.467 5.12377 14.1098 6.43314 14.3703C7.74251 14.6307 9.09971 14.4971 10.3331 13.9862C11.5665 13.4753 12.6207 12.6101 13.3624 11.5001C14.1041 10.3901 14.5 9.08502 14.5 7.75C14.4994 5.95999 13.788 4.24347 12.5223 2.97774C11.2565 1.71201 9.54001 1.00065 7.75 1ZM10.9495 5.716C10.9497 5.78696 10.9358 5.85726 10.9087 5.92285C10.8817 5.98845 10.8419 6.04804 10.7917 6.09822C10.7415 6.1484 10.6819 6.18817 10.6164 6.21525C10.5508 6.24232 10.4805 6.25617 10.4095 6.256H10.0045C9.86141 6.25558 9.7243 6.19856 9.62313 6.09738C9.52194 5.9962 9.46492 5.85909 9.4645 5.716V5.185H6.9265L8.533 7.435C8.59884 7.52684 8.63425 7.637 8.63425 7.75C8.63425 7.863 8.59884 7.97316 8.533 8.065L6.9265 10.315H9.4645V9.784C9.46492 9.64091 9.52194 9.5038 9.62313 9.40262C9.7243 9.30144 9.86141 9.24442 10.0045 9.244H10.4095C10.4805 9.24383 10.5508 9.25768 10.6164 9.28475C10.6819 9.31183 10.7415 9.3516 10.7917 9.40178C10.8419 9.45195 10.8817 9.51155 10.9087 9.57715C10.9358 9.64274 10.9497 9.71304 10.9495 9.784V11.26C10.9497 11.331 10.9358 11.4013 10.9087 11.4669C10.8817 11.5324 10.8419 11.592 10.7917 11.6422C10.7415 11.6924 10.6819 11.7322 10.6164 11.7592C10.5508 11.7863 10.4805 11.8002 10.4095 11.8H5.0905C4.99106 11.8002 4.89348 11.773 4.80851 11.7213C4.72353 11.6697 4.65445 11.5956 4.60887 11.5072C4.56328 11.4188 4.54295 11.3196 4.55012 11.2204C4.55729 11.1212 4.59168 11.0259 4.6495 10.945L6.9355 7.75L4.6495 4.555C4.59168 4.47409 4.55729 4.3788 4.55012 4.27962C4.54295 4.18043 4.56328 4.08119 4.60887 3.99281C4.65445 3.90443 4.72353 3.83033 4.80851 3.77867C4.89348 3.72701 4.99106 3.69979 5.0905 3.7H10.4095C10.4805 3.69983 10.5508 3.71368 10.6164 3.74075C10.6819 3.76783 10.7415 3.8076 10.7917 3.85778C10.8419 3.90795 10.8817 3.96755 10.9087 4.03315C10.9358 4.09874 10.9497 4.16904 10.9495 4.24V5.716Z" fill="#666666"/>
</svg>
