<svg width="16" height="16" viewBox="0 0 16 16" fill="none" xmlns="http://www.w3.org/2000/svg">
<path d="M14.9977 3.68373C14.9977 5.81145 14.0701 7.35725 14.0311 7.42173C14.0028 7.4683 13.9657 7.50883 13.9217 7.541C13.8777 7.57318 13.8278 7.59638 13.7749 7.60926C13.722 7.62214 13.667 7.62446 13.6132 7.61608C13.5593 7.6077 13.5077 7.5888 13.4611 7.56043C13.3669 7.50336 13.2992 7.41121 13.2729 7.30422C13.2466 7.19723 13.2638 7.08418 13.3208 6.9899C13.3295 6.97581 14.1666 5.56872 14.1666 3.68373C14.1666 2.60877 13.4676 1.82855 12.5043 1.82855C12.0635 1.82898 11.6408 2.00433 11.3292 2.31609C11.0175 2.62786 10.8423 3.05056 10.842 3.49139C10.842 3.88204 11.0311 4.87465 11.1037 5.22412C11.1209 5.32987 11.0967 5.43819 11.036 5.52653C10.9754 5.61486 10.883 5.6764 10.7781 5.69832C10.6733 5.72025 10.564 5.70087 10.473 5.64423C10.3821 5.58759 10.3165 5.49805 10.2899 5.39425C10.2612 5.25717 10.0098 4.03862 10.0098 3.49139C10.0106 2.83011 10.2737 2.19618 10.7414 1.72864C11.209 1.26109 11.843 0.998123 12.5043 0.997406C13.9255 0.997406 14.9977 2.15202 14.9977 3.68373ZM12.5747 4.33771C12.74 5.7188 12.9795 8.41 12.7042 8.68416L6.66513 14.7238C6.57678 14.8122 6.47186 14.8824 6.35637 14.9302C6.24088 14.978 6.11709 15.0026 5.99209 15.0026C5.86708 15.0025 5.74331 14.9778 5.62786 14.9299C5.51241 14.882 5.40754 14.8118 5.31926 14.7233L1.2811 10.6856C1.1927 10.5973 1.12257 10.4924 1.07473 10.3769C1.02688 10.2614 1.00226 10.1377 1.00226 10.0127C1.00226 9.88771 1.02688 9.76395 1.07473 9.64849C1.12257 9.53302 1.1927 9.42812 1.2811 9.33976L7.32073 3.30067C7.41663 3.20477 8.46126 3.20043 9.63592 3.26166C9.62941 3.33914 9.61262 3.41228 9.61262 3.49139C9.61262 3.79264 9.67926 4.25969 9.74916 4.67038C9.64938 4.81842 9.58569 4.98779 9.5632 5.16489C9.54071 5.34199 9.56005 5.5219 9.61967 5.69017C9.67929 5.85845 9.77753 6.01041 9.90649 6.13385C10.0355 6.2573 10.1916 6.34879 10.3623 6.40099C10.533 6.45319 10.7136 6.46464 10.8895 6.43443C11.0655 6.40421 11.2319 6.33318 11.3754 6.22701C11.519 6.12085 11.6356 5.98252 11.716 5.82313C11.7964 5.66373 11.8383 5.48771 11.8384 5.30919C11.8384 4.9207 11.6439 4.57827 11.3475 4.37238C11.2868 4.01099 11.2381 3.66206 11.2381 3.49139C11.2381 3.45455 11.2457 3.42041 11.2489 3.38411C11.3936 3.39928 11.5361 3.41499 11.671 3.43179C12.4691 3.52986 12.4772 3.52823 12.5747 4.33771ZM9.3558 8.85754C9.26206 8.59693 9.10602 8.2843 8.76738 7.92454L9.22576 7.46562L8.71537 6.95577L8.22069 7.45099C7.55859 6.99749 6.8759 7.03433 6.41265 7.49758C5.90767 8.00256 6.02687 8.64353 6.39748 9.38853C6.65213 9.90434 6.69873 10.2013 6.50096 10.399C6.29778 10.6022 5.96998 10.5139 5.67253 10.217C5.33443 9.87887 5.13613 9.46113 5.03752 9.12249L4.27139 9.57654C4.36025 9.8832 4.59973 10.3205 4.93782 10.6802L4.43827 11.1803L4.94812 11.6907L5.48506 11.1543C6.19321 11.6539 6.90733 11.5867 7.37058 11.1234C7.84467 10.6482 7.88639 10.1173 7.48003 9.27366C7.19828 8.66899 7.13056 8.37208 7.29743 8.20574C7.44373 8.05945 7.7038 8.01773 8.04243 8.35636C8.41791 8.73184 8.54253 9.09649 8.61026 9.28937L9.3558 8.85754Z" fill="#666666"/>
</svg>
