<svg width="16" height="16" viewBox="0 0 16 16" fill="none" xmlns="http://www.w3.org/2000/svg">
<path fill-rule="evenodd" clip-rule="evenodd" d="M11.3333 8.66667C9.86133 8.66667 8.66667 9.86133 8.66667 11.3333C8.66667 12.8053 9.86133 14 11.3333 14C12.8053 14 14 12.8053 14 11.3333C14 9.86133 12.8053 8.66667 11.3333 8.66667ZM7.33333 10C7.33333 9.64667 7.19267 9.30733 6.94267 9.05733C6.69267 8.80733 6.35333 8.66667 6 8.66667C5.26 8.66667 4.07333 8.66667 3.33333 8.66667C2.98 8.66667 2.64067 8.80733 2.39067 9.05733C2.14067 9.30733 2 9.64667 2 10V12.6667C2 13.02 2.14067 13.3593 2.39067 13.6093C2.64067 13.8593 2.98 14 3.33333 14H6C6.35333 14 6.69267 13.8593 6.94267 13.6093C7.19267 13.3593 7.33333 13.02 7.33333 12.6667V10ZM7.33333 3.33333C7.33333 2.98 7.19267 2.64067 6.94267 2.39067C6.69267 2.14067 6.35333 2 6 2C5.26 2 4.07333 2 3.33333 2C2.98 2 2.64067 2.14067 2.39067 2.39067C2.14067 2.64067 2 2.98 2 3.33333V6C2 6.35333 2.14067 6.69267 2.39067 6.94267C2.64067 7.19267 2.98 7.33333 3.33333 7.33333H6C6.35333 7.33333 6.69267 7.19267 6.94267 6.94267C7.19267 6.69267 7.33333 6.35333 7.33333 6V3.33333ZM14 3.33333C14 2.98 13.8593 2.64067 13.6093 2.39067C13.3593 2.14067 13.02 2 12.6667 2C11.9267 2 10.74 2 10 2C9.64667 2 9.30733 2.14067 9.05733 2.39067C8.80733 2.64067 8.66667 2.98 8.66667 3.33333V6C8.66667 6.35333 8.80733 6.69267 9.05733 6.94267C9.30733 7.19267 9.64667 7.33333 10 7.33333H12.6667C13.02 7.33333 13.3593 7.19267 13.6093 6.94267C13.8593 6.69267 14 6.35333 14 6V3.33333Z" fill="#666666"/>
</svg>
