<svg width="16" height="16" viewBox="0 0 16 16" fill="none" xmlns="http://www.w3.org/2000/svg">
<rect x="1" y="1" width="14" height="14" rx="3" fill="#666666"/>
<path fill-rule="evenodd" clip-rule="evenodd" d="M5.62238 3.20438C5.65281 3.4793 5.45462 3.72683 5.1797 3.75726C4.53941 3.82814 4.21623 3.97656 3.98506 4.23672C3.76908 4.47977 3.63221 4.82229 3.55927 5.43283C3.48526 6.0523 3.48442 6.8688 3.48442 8.01725C3.48442 9.16567 3.48526 9.98221 3.55927 10.6017C3.63221 11.2122 3.76908 11.5547 3.98506 11.7978C4.21623 12.0579 4.53941 12.2063 5.1797 12.2773C5.45462 12.3077 5.65281 12.5552 5.62238 12.8301C5.59195 13.105 5.34442 13.3032 5.0695 13.2728C4.31802 13.1896 3.70437 12.9898 3.23632 12.4631C2.82521 12.0005 2.64854 11.4222 2.56471 10.7205C2.48277 10.0346 2.48278 9.15816 2.48279 8.05091V7.9836C2.48278 6.8763 2.48277 5.99987 2.56471 5.31402C2.64854 4.6123 2.82521 4.03405 3.23632 3.5714C3.70437 3.04465 4.31802 2.84489 5.0695 2.76171C5.34442 2.73127 5.59195 2.92946 5.62238 3.20438ZM10.3612 3.20438C10.3916 2.92946 10.6391 2.73128 10.914 2.76171C11.6655 2.84489 12.2792 3.04465 12.7472 3.5714C13.1584 4.03405 13.335 4.6123 13.4188 5.31402C13.5008 5.99986 13.5008 6.87629 13.5008 7.9836V8.05091C13.5008 9.15821 13.5008 10.0346 13.4188 10.7205C13.335 11.4222 13.1584 12.0005 12.7472 12.4631C12.2792 12.9898 11.6655 13.1896 10.914 13.2728C10.6391 13.3032 10.3916 13.105 10.3612 12.8301C10.3307 12.5552 10.5289 12.3077 10.8039 12.2773C11.4442 12.2063 11.7673 12.0579 11.9985 11.7978C12.2145 11.5547 12.3513 11.2122 12.4243 10.6017C12.4983 9.98221 12.4991 9.16567 12.4991 8.01725C12.4991 6.8688 12.4983 6.0523 12.4243 5.43283C12.3513 4.82229 12.2145 4.47977 11.9985 4.23672C11.7673 3.97656 11.4442 3.82814 10.8039 3.75726C10.5289 3.72683 10.3307 3.4793 10.3612 3.20438Z" fill="white"/>
<path d="M8.85836 6.5153L7.39753 6.51618L8.26374 7.27519C8.34968 7.35036 8.44944 7.4377 8.52356 7.52379C8.61216 7.62671 8.72039 7.79033 8.72039 8.01745C8.72039 8.24457 8.61216 8.40819 8.52356 8.51111C8.44944 8.5972 8.34968 8.68454 8.26374 8.75971L7.40103 9.51564L8.85836 9.5196C8.91666 9.51865 8.95637 9.51524 8.98497 9.51009C8.98988 9.46191 8.99203 9.39034 8.99243 9.26719C8.99333 8.99059 9.21825 8.76707 9.49485 8.76797C9.77145 8.76888 9.99497 8.99379 9.99406 9.27039C9.99361 9.39966 9.99196 9.53077 9.97739 9.64766C9.96186 9.77166 9.92866 9.91139 9.84497 10.0476C9.66618 10.3385 9.39529 10.4526 9.16952 10.4946C9.00485 10.5251 8.82105 10.5225 8.70907 10.5209L7.35676 10.5203C7.10801 10.5204 6.87002 10.5204 6.6887 10.4951C6.52796 10.4726 6.16229 10.3995 6.02732 10.0265C5.89444 9.65933 6.12001 9.36865 6.22641 9.24621C6.34714 9.10723 6.52711 8.94962 6.71656 8.78365L7.59099 8.01745L6.71656 7.25125C6.52711 7.08528 6.34714 6.92765 6.22641 6.78868C6.12001 6.66622 5.89444 6.37557 6.02732 6.00839C6.16229 5.63537 6.52796 5.56228 6.6887 5.5398C6.87002 5.51445 7.10801 5.51449 7.35676 5.51454L8.70907 5.51398C8.82105 5.51237 9.00485 5.50973 9.16952 5.54032C9.39529 5.58225 9.66618 5.69642 9.84497 5.98734C9.92866 6.12351 9.96186 6.26324 9.97739 6.38722C9.99196 6.50416 9.99361 6.63524 9.99406 6.76451C9.99497 7.04111 9.77145 7.26607 9.49485 7.26693C9.21825 7.26783 8.99333 7.04431 8.99243 6.76774C8.99203 6.64456 8.98988 6.57298 8.98497 6.52481C8.95637 6.51965 8.91666 6.51626 8.85836 6.5153Z" fill="white"/>
</svg>
