<svg width="16" height="16" viewBox="0 0 16 16" fill="none" xmlns="http://www.w3.org/2000/svg">
<rect y="3" width="16" height="10" rx="2" fill="#666666"/>
<path d="M9.11232 4.91346C9.14786 4.9693 9.17071 5.04038 9.18086 5.12668C9.20624 5.30437 9.2164 5.48714 9.21132 5.67498C9.21132 5.85775 9.21386 6.03798 9.21894 6.21566C9.21894 6.42381 9.21894 6.62943 9.21894 6.8325C9.22401 7.03557 9.22655 7.24119 9.22655 7.44934V8.09663H9.55401C9.60985 8.09663 9.66824 8.10425 9.72916 8.11948C9.79008 8.12963 9.84593 8.14994 9.89669 8.1804C9.94746 8.21086 9.99062 8.24894 10.0262 8.29463C10.0617 8.34032 10.082 8.39617 10.0871 8.46216C10.0871 8.62462 10.0363 8.73631 9.93477 8.79724C9.83323 8.85308 9.71139 8.88608 9.56924 8.89623C9.55908 8.89623 9.53624 8.89877 9.5007 8.90385C9.47024 8.90385 9.4347 8.90385 9.39409 8.90385C9.35347 8.90385 9.3154 8.90385 9.27986 8.90385C9.2494 8.90385 9.23163 8.89877 9.22655 8.88862V9.40646C9.22655 9.4623 9.22655 9.52576 9.22655 9.59684C9.22655 9.66791 9.22147 9.73899 9.21132 9.81006C9.20117 9.87606 9.18086 9.93952 9.1504 10.0004C9.12501 10.0614 9.0844 10.1096 9.02855 10.1451C9.00317 10.1604 8.97017 10.1731 8.92956 10.1832C8.89402 10.1883 8.8534 10.1934 8.80771 10.1984C8.76202 10.2035 8.71633 10.2061 8.67064 10.2061C8.63002 10.201 8.59449 10.1934 8.56402 10.1832C8.47264 10.1528 8.41426 10.0893 8.38887 9.99283C8.36349 9.89129 8.34572 9.79737 8.33557 9.71107C8.33557 9.69584 8.33557 9.64761 8.33557 9.56638C8.33557 9.48007 8.33557 9.39123 8.33557 9.29984C8.33557 9.20338 8.33303 9.11708 8.32795 9.04092C8.32287 8.96477 8.31526 8.9267 8.30511 8.9267H6.96482C6.81759 8.9267 6.66275 8.92416 6.50029 8.91908C6.33783 8.914 6.19822 8.86831 6.08145 8.78201C5.99007 8.71601 5.93676 8.64239 5.92153 8.56116C5.9063 8.47486 5.91138 8.39109 5.93676 8.30986C5.96722 8.22355 6.01038 8.13979 6.06622 8.05856C6.12207 7.97733 6.17537 7.90371 6.22614 7.83771C6.41906 7.5788 6.60437 7.3148 6.78205 7.04573C6.96482 6.77666 7.14759 6.51012 7.33035 6.24613C7.43189 6.10905 7.53596 5.97705 7.64258 5.85013C7.75427 5.72321 7.85834 5.59121 7.9548 5.45414C8.02588 5.34753 8.10203 5.23837 8.18326 5.12668C8.26957 5.01499 8.37618 4.92869 8.5031 4.86776C8.62495 4.81192 8.74171 4.784 8.8534 4.784C8.96509 4.784 9.0514 4.82715 9.11232 4.91346ZM8.35841 6.2842L7.09428 8.06617H8.35841V6.2842Z" fill="white"/>
<path d="M11.8458 7.99508H14.6458" stroke="white" stroke-linecap="round"/>
<path d="M1.30878 8.00009H4.10878" stroke="white" stroke-width="0.971947" stroke-linecap="round"/>
<path d="M13.2458 6.6L13.2458 9.4" stroke="white" stroke-linecap="round"/>
</svg>
