<svg width="16" height="16" viewBox="0 0 16 16" fill="none" xmlns="http://www.w3.org/2000/svg">
<path d="M7.62541 5.60303C7.62541 5.88451 7.54194 6.15967 7.38556 6.39372C7.22918 6.62776 7.00691 6.81017 6.74685 6.91789C6.4868 7.02561 6.20064 7.05379 5.92457 6.99888C5.6485 6.94396 5.39491 6.80842 5.19587 6.60938C4.99683 6.41035 4.86129 6.15676 4.80637 5.88068C4.75146 5.60461 4.77964 5.31845 4.88736 5.0584C4.99508 4.79835 5.17749 4.57607 5.41154 4.41969C5.64558 4.26331 5.92074 4.17984 6.20222 4.17984C6.57958 4.18016 6.94139 4.3302 7.20822 4.59703C7.47505 4.86387 7.6251 5.22568 7.62541 5.60303ZM13.9923 5.48918V10.5108C13.9923 12.692 12.692 13.9924 10.5107 13.9924H5.48913C3.96107 13.9924 2.85847 13.3512 2.34312 12.2126C2.26682 12.0412 2.20469 11.8639 2.15736 11.6823L2.13878 11.6092C2.05005 11.2499 2.00597 10.8809 2.00755 10.5108V5.48918C2.00755 3.30795 3.3079 2.0076 5.48913 2.0076H10.5107C12.692 2.0076 13.9923 3.30795 13.9923 5.48918ZM13.0935 5.48918C13.0935 3.79932 12.2006 2.90646 10.5107 2.90646H5.48913C3.79927 2.90646 2.90641 3.79932 2.90641 5.48918V10.5108C2.90148 10.914 2.9718 11.3145 3.11374 11.6919L5.35729 10.1872C5.59517 10.0298 5.87731 9.95304 6.16213 9.96814C6.44695 9.98325 6.71939 10.0895 6.93928 10.2711L7.14303 10.4389C7.38153 10.6337 7.68001 10.7401 7.98795 10.7401C8.29589 10.7401 8.59438 10.6337 8.83288 10.4389L11.3257 8.29961C11.5642 8.10481 11.8627 7.99841 12.1706 7.99841C12.4786 7.99841 12.7771 8.10481 13.0156 8.29961L13.0935 8.36672V5.48918Z" fill="#666666"/>
</svg>
