<svg width="16" height="16" viewBox="0 0 16 16" fill="none" xmlns="http://www.w3.org/2000/svg">
<path d="M14 3.33333H1.99998C1.82317 3.33333 1.6536 3.40357 1.52858 3.52859C1.40355 3.65362 1.33331 3.82319 1.33331 4C1.33331 4.17681 1.40355 4.34638 1.52858 4.4714C1.6536 4.59643 1.82317 4.66667 1.99998 4.66667H3.33331V12.6667C3.33347 13.1971 3.54424 13.7057 3.91928 14.0807C4.29431 14.4557 4.80293 14.6665 5.33331 14.6667H10.6666C11.197 14.6665 11.7057 14.4558 12.0807 14.0807C12.4557 13.7057 12.6665 13.1971 12.6666 12.6667V4.66667H14C14.1768 4.66667 14.3464 4.59643 14.4714 4.4714C14.5964 4.34638 14.6666 4.17681 14.6666 4C14.6666 3.82319 14.5964 3.65362 14.4714 3.52859C14.3464 3.40357 14.1768 3.33333 14 3.33333ZM7.33331 10.6667C7.33331 10.8435 7.26308 11.013 7.13805 11.1381C7.01303 11.2631 6.84346 11.3333 6.66665 11.3333C6.48984 11.3333 6.32027 11.2631 6.19524 11.1381C6.07022 11.013 5.99998 10.8435 5.99998 10.6667V7.33333C5.99998 7.15652 6.07022 6.98695 6.19524 6.86193C6.32027 6.7369 6.48984 6.66667 6.66665 6.66667C6.84346 6.66667 7.01303 6.7369 7.13805 6.86193C7.26308 6.98695 7.33331 7.15652 7.33331 7.33333V10.6667ZM9.99998 10.6667C9.99998 10.8435 9.92974 11.013 9.80472 11.1381C9.67969 11.2631 9.51012 11.3333 9.33331 11.3333C9.1565 11.3333 8.98693 11.2631 8.86191 11.1381C8.73688 11.013 8.66665 10.8435 8.66665 10.6667V7.33333C8.66665 7.15652 8.73688 6.98695 8.86191 6.86193C8.98693 6.7369 9.1565 6.66667 9.33331 6.66667C9.51012 6.66667 9.67969 6.7369 9.80472 6.86193C9.92974 6.98695 9.99998 7.15652 9.99998 7.33333V10.6667Z" fill="#666666"/>
<path d="M6.66667 2.66667H9.33333C9.51014 2.66667 9.67971 2.59643 9.80474 2.4714C9.92976 2.34638 10 2.17681 10 2C10 1.82319 9.92976 1.65362 9.80474 1.52859C9.67971 1.40357 9.51014 1.33333 9.33333 1.33333H6.66667C6.48986 1.33333 6.32029 1.40357 6.19526 1.52859C6.07024 1.65362 6 1.82319 6 2C6 2.17681 6.07024 2.34638 6.19526 2.4714C6.32029 2.59643 6.48986 2.66667 6.66667 2.66667Z" fill="#666666"/>
</svg>
