<svg width="16" height="16" viewBox="0 0 16 16" fill="none" xmlns="http://www.w3.org/2000/svg">
<path d="M8 13.5C8 13.7967 7.91203 14.0867 7.7472 14.3334C7.58238 14.58 7.34811 14.7723 7.07403 14.8858C6.79994 14.9994 6.49834 15.0291 6.20736 14.9712C5.91639 14.9133 5.64912 14.7704 5.43934 14.5607C5.22956 14.3509 5.0867 14.0836 5.02882 13.7926C4.97094 13.5017 5.00065 13.2001 5.11418 12.926C5.22771 12.6519 5.41997 12.4176 5.66664 12.2528C5.91332 12.088 6.20333 12 6.5 12C6.8977 12.0004 7.279 12.1586 7.56022 12.4398C7.84144 12.721 7.9996 13.1023 8 13.5ZM11.5 12C11.2033 12 10.9133 12.088 10.6666 12.2528C10.42 12.4176 10.2277 12.6519 10.1142 12.926C10.0006 13.2001 9.97094 13.5017 10.0288 13.7926C10.0867 14.0836 10.2296 14.3509 10.4393 14.5607C10.6491 14.7704 10.9164 14.9133 11.2074 14.9712C11.4983 15.0291 11.7999 14.9994 12.074 14.8858C12.3481 14.7723 12.5824 14.58 12.7472 14.3334C12.912 14.0867 13 13.7967 13 13.5C12.9996 13.1023 12.8414 12.721 12.5602 12.4398C12.279 12.1586 11.8977 12.0004 11.5 12ZM14.8767 4.689L13.897 9.7835C13.8307 10.1255 13.6477 10.4338 13.3792 10.6557C13.1106 10.8776 12.7734 10.9993 12.425 11H5.56975C5.23914 10.9986 4.91826 10.888 4.65699 10.6854C4.39572 10.4828 4.2087 10.1996 4.125 9.87975C4.11325 9.8525 2.59 2.25 2.59 2.25H1.75C1.61739 2.25 1.49021 2.19732 1.39645 2.10355C1.30268 2.00979 1.25 1.88261 1.25 1.75C1.25 1.61739 1.30268 1.49021 1.39645 1.39645C1.49021 1.30268 1.61739 1.25 1.75 1.25H2.59C2.82107 1.25045 3.04488 1.33072 3.22355 1.47724C3.40223 1.62375 3.52479 1.8275 3.5705 2.054L3.85975 3.5H13.8947C14.0421 3.5 14.1876 3.53255 14.3209 3.59534C14.4542 3.65813 14.572 3.7496 14.6658 3.8632C14.7596 3.97681 14.8272 4.10974 14.8637 4.2525C14.9001 4.39526 14.9046 4.54431 14.8767 4.689ZM11.25 7.25C11.25 7.11739 11.1973 6.99021 11.1036 6.89645C11.0098 6.80268 10.8826 6.75 10.75 6.75H9.5V5.5C9.5 5.36739 9.44732 5.24021 9.35355 5.14645C9.25979 5.05268 9.13261 5 9 5C8.86739 5 8.74021 5.05268 8.64645 5.14645C8.55268 5.24021 8.5 5.36739 8.5 5.5V6.75H7.25C7.11739 6.75 6.99021 6.80268 6.89645 6.89645C6.80268 6.99021 6.75 7.11739 6.75 7.25C6.75 7.38261 6.80268 7.50979 6.89645 7.60355C6.99021 7.69732 7.11739 7.75 7.25 7.75H8.5V9C8.5 9.13261 8.55268 9.25979 8.64645 9.35355C8.74021 9.44732 8.86739 9.5 9 9.5C9.13261 9.5 9.25979 9.44732 9.35355 9.35355C9.44732 9.25979 9.5 9.13261 9.5 9V7.75H10.75C10.8826 7.75 11.0098 7.69732 11.1036 7.60355C11.1973 7.50979 11.25 7.38261 11.25 7.25Z" fill="#666666"/>
</svg>
