<svg width="16" height="16" viewBox="0 0 16 16" fill="none" xmlns="http://www.w3.org/2000/svg">
<path d="M2.535 4.76501L1.36999 12.11C1.26001 12.835 1.46499 13.565 1.94 14.125C2.415 14.68 3.10998 15 3.83999 15H12.16C12.89 15 13.585 14.68 14.06 14.125C14.535 13.565 14.74 12.835 14.63 12.11L13.465 4.76501C13.35 4.03 12.73 3.5 11.985 3.5H10.955C10.715 2.08499 9.48498 1 8 1C6.51501 1 5.285 2.08499 5.04501 3.5H4.01501C3.26998 3.5 2.64999 4.03 2.535 4.76501ZM8 2C8.92999 2 9.70498 2.64001 9.92999 3.5H6.07C6.29501 2.64001 7.07 2 8 2ZM5.5 5.5C5.77499 5.5 6 5.72 6 6C6 7.10001 6.89498 8 8 8C9.10501 8 10 7.10001 10 6C10 5.72 10.225 5.5 10.5 5.5C10.775 5.5 11 5.72 11 6C11 7.655 9.65499 9 8 9C6.345 9 5 7.655 5 6C5 5.72 5.225 5.5 5.5 5.5Z" fill="#666666"/>
</svg>
