<svg width="16" height="16" viewBox="0 0 16 16" fill="none" xmlns="http://www.w3.org/2000/svg">
<path d="M4.04236 2.89493L1.5167 4.2354C1.47344 4.25807 1.43259 4.28388 1.39398 4.31213L7.85233 7.67986L10.5568 6.34221L4.04236 2.89493Z" fill="#666666"/>
<path d="M14.9987 5.06003L11.7677 6.65811V8.4585C11.7677 8.68493 11.5841 8.86852 11.3576 8.86852C11.1312 8.86852 10.9476 8.68493 10.9476 8.4585V7.06372L8.25739 8.39435V14.9102C8.26581 14.9063 8.27434 14.9027 8.28268 14.8986L14.4673 11.7648C14.7959 11.6005 14.9999 11.2705 14.9999 10.903V5.09626C14.9999 5.08409 14.9991 5.07209 14.9987 5.06003Z" fill="#666666"/>
<path d="M14.4673 4.23436L8.2852 1.10194L8.28263 1.10065C8.00736 0.963607 7.68028 0.96667 7.40758 1.10886L4.9176 2.43035L11.4629 5.89396L14.6222 4.33135C14.5742 4.29481 14.5227 4.26203 14.4673 4.23436Z" fill="#666666"/>
<path d="M1.00194 5.03252C1.00085 5.0513 1 5.07011 1 5.08909V10.9101C1 11.27 1.19797 11.5969 1.51669 11.7638L7.40503 14.8889L7.40768 14.8903C7.41747 14.8954 7.42748 14.8999 7.4374 14.9047V8.38831L1.00194 5.03252Z" fill="#666666"/>
</svg>
