<svg width="16" height="16" viewBox="0 0 16 16" fill="none" xmlns="http://www.w3.org/2000/svg">
<path d="M2.50689 10.0023C3.61274 10.0023 4.5092 9.10587 4.5092 8.00002C4.5092 6.89418 3.61274 5.99771 2.50689 5.99771C1.40104 5.99771 0.504578 6.89418 0.504578 8.00002C0.504578 9.10587 1.40104 10.0023 2.50689 10.0023Z" stroke="#666666" stroke-width="0.934412"/>
<path d="M7.99993 10.548C9.40713 10.548 10.5479 9.40723 10.5479 8.00002C10.5479 6.59282 9.40713 5.45206 7.99993 5.45206C6.59273 5.45206 5.45197 6.59282 5.45197 8.00002C5.45197 9.40723 6.59273 10.548 7.99993 10.548Z" fill="#666666"/>
<path d="M13.4169 10.0023C14.5227 10.0023 15.4192 9.10587 15.4192 8.00002C15.4192 6.89418 14.5227 5.99771 13.4169 5.99771C12.311 5.99771 11.4146 6.89418 11.4146 8.00002C11.4146 9.10587 12.311 10.0023 13.4169 10.0023Z" stroke="#666666" stroke-width="0.934412"/>
</svg>
